<svg xmlns="http://www.w3.org/2000/svg" width="42.762" height="44.672" viewBox="0 0 42.762 44.672"><defs><style>.a{fill:#fff;}</style></defs><g transform="translate(-8.381)"><path class="a" d="M12.931,44.672H46.593a4.555,4.555,0,0,0,4.55-4.55V9.417a4.556,4.556,0,0,0-4.55-4.551H44.819V3.619a3.619,3.619,0,1,0-7.239,0V4.866H21.944V3.619a3.619,3.619,0,0,0-7.239,0V4.866H12.931a4.555,4.555,0,0,0-4.55,4.55V40.122a4.555,4.555,0,0,0,4.55,4.55ZM46.593,43.3H12.931a3.186,3.186,0,0,1-3.183-3.183V13.957H49.776V40.122A3.186,3.186,0,0,1,46.593,43.3ZM38.947,3.619a2.252,2.252,0,1,1,4.5,0v2.4a2.252,2.252,0,1,1-4.5,0Zm-22.875,0a2.252,2.252,0,1,1,4.5,0v2.4a2.252,2.252,0,0,1-4.5,0ZM12.931,6.234h1.781a3.619,3.619,0,0,0,7.225,0h15.65a3.619,3.619,0,0,0,7.225,0h1.781a3.186,3.186,0,0,1,3.183,3.183v3.173H9.749V9.417A3.186,3.186,0,0,1,12.931,6.234Z"/><path class="a" d="M122.013,149.5l-5.659-1.132V141.78a3.567,3.567,0,0,0-7.133,0v6.592l-5.66,1.132a1.842,1.842,0,0,0-1.477,1.8v1.361a1.262,1.262,0,0,0,1.26,1.26h5.875v3.483l-2.559,4.445a1.346,1.346,0,0,0,1.023,2.219.682.682,0,0,0,.232-.041l4.87-1.761,4.886,1.761a.682.682,0,0,0,.232.041,1.346,1.346,0,0,0,1.023-2.22l-2.573-4.446v-3.482h5.876a1.262,1.262,0,0,0,1.26-1.26v-1.361a1.842,1.842,0,0,0-1.477-1.8Zm.11,3.055h-5.769v-1.046a.684.684,0,0,0-1.368,0v6.079a.683.683,0,0,0,.092.343l2.7,4.668.011.02-4.774-1.721a.684.684,0,0,0-.464,0l-4.758,1.721.012-.021,2.688-4.669a.684.684,0,0,0,.091-.341v-6.079a.684.684,0,0,0-1.368,0v1.046h-5.769v-1.254a.471.471,0,0,1,.377-.46l6.209-1.242a.684.684,0,0,0,.55-.67V141.78a2.2,2.2,0,0,1,4.4,0v7.152a.684.684,0,0,0,.55.67l6.209,1.242a.471.471,0,0,1,.378.461Z" transform="translate(-83.025 -122.513)"/><path class="a" d="M187.986,184.557a.857.857,0,1,0,.857.857h0A.858.858,0,0,0,187.986,184.557Z" transform="translate(-158.378 -163.525)"/><path class="a" d="M187.986,214.912a.857.857,0,1,0,.857.857A.857.857,0,0,0,187.986,214.912Z" transform="translate(-158.378 -190.421)"/><path class="a" d="M187.986,245.267a.857.857,0,1,0,.857.857A.857.857,0,0,0,187.986,245.267Z" transform="translate(-158.378 -217.316)"/><path class="a" d="M187.986,275.622a.857.857,0,1,0,.857.857A.857.857,0,0,0,187.986,275.622Z" transform="translate(-158.378 -244.212)"/></g></svg>