<svg xmlns="http://www.w3.org/2000/svg" width="70.499" height="70.499" viewBox="0 0 70.499 70.499"><defs><style>.a{opacity:0.15;}.b{fill:#fff;}</style></defs><g class="a" transform="translate(0.001 0)"><g transform="translate(18.008 44.652)"><path class="b" d="M133.529,325.477l-.01-.055a1.377,1.377,0,1,0-2.712.481l.01.055a1.377,1.377,0,0,0,1.354,1.137,1.4,1.4,0,0,0,.242-.021A1.377,1.377,0,0,0,133.529,325.477Z" transform="translate(-130.786 -324.285)"/></g><g transform="translate(-0.001 0)"><g transform="translate(0 0)"><path class="b" d="M60.128,60.442l3.806-22.072,2.814.5a1.362,1.362,0,0,0,.239.021,1.377,1.377,0,0,0,1.356-1.138l2.069-11.733A5.6,5.6,0,0,0,66.857,19.8l-2.434-.909a.144.144,0,0,1-.042-.025h0a.145.145,0,0,1-.048-.135l.122-.69a6.381,6.381,0,0,0,1.344-.733,6.49,6.49,0,0,0,2.581-4.175l.215-1.219h0l.1-.583A6.476,6.476,0,0,0,67.63,6.436,6.333,6.333,0,0,0,56.24,9.021l-.122.691h0l-.236,1.337a6.335,6.335,0,0,0,2.033,5.833l-.107.628a.261.261,0,0,1-.258.217l-2.5-.008a5.6,5.6,0,0,0-5.468,4.627L47.516,34.077a1.377,1.377,0,0,0,1.117,1.6l2.82.5L48.062,55.4a48.925,48.925,0,0,0-7.013-1.346V45.576H42.3a1.4,1.4,0,0,0,.657-.152,1.38,1.38,0,0,0,.726-1.452l-1.453-8.677h1.935a1.377,1.377,0,0,0,1.377-1.377v-11.6a5.477,5.477,0,0,0-1.3-3.541c0-.042.006-.084.006-.128V9.138a9,9,0,1,0-18-.137v9.646a1.405,1.405,0,0,0,.007.141,5.478,5.478,0,0,0-1.285,3.528v11.6A1.377,1.377,0,0,0,26.347,35.3h1.937c.021,0,.042,0,.063,0l-1.528,8.668a1.379,1.379,0,0,0,.611,1.4,1.433,1.433,0,0,0,.782.218h1.253v8.475A48.929,48.929,0,0,0,22.435,55.4l-.7-3.987a1.377,1.377,0,0,0-2.712.478l.759,4.305q-1.059.35-2.105.748L14.163,37.031l2.17-.383.713,4.043A1.377,1.377,0,0,0,18.4,41.83a1.394,1.394,0,0,0,.234-.02,1.425,1.425,0,0,0,1.115-1.648l-.7-3.991,2.82-.5a1.377,1.377,0,0,0,1.117-1.6L20.913,22.345a5.6,5.6,0,0,0-5.468-4.627L12.93,17.7a.246.246,0,0,1-.24-.2l-.108-.612a6.335,6.335,0,0,0,2.033-5.833l-.236-1.337h0l-.1-.581A6.479,6.479,0,0,0,11.663,4.94,6.333,6.333,0,0,0,2.825,6.5,6.479,6.479,0,0,0,1.8,11.33l.1.581h0l.236,1.337a6.335,6.335,0,0,0,3.9,4.785l.123.7a.153.153,0,0,1-.092.161L3.64,19.8A5.6,5.6,0,0,0,.085,26.018L2.154,37.75a1.377,1.377,0,0,0,1.6,1.117l2.814-.5L10.37,60.443A49.238,49.238,0,0,0,.4,68.148,1.377,1.377,0,0,0,2.35,70.1a46.526,46.526,0,0,1,65.8,0,1.377,1.377,0,0,0,1.947-1.947A49.226,49.226,0,0,0,60.128,60.442ZM5.087,8.067A3.585,3.585,0,0,1,8.022,6.54a3.592,3.592,0,0,1,3.015,1.654L9.985,7.8a1.377,1.377,0,0,0-1.674.6A4.059,4.059,0,0,1,5.493,10.38l-1.026.181A3.554,3.554,0,0,1,5.087,8.067Zm-.11,5.2.994-.175a6.805,6.805,0,0,0,4.047-2.339l1.871.7.014.077a3.58,3.58,0,0,1-6.926,1.74ZM8.906,18.46q.285-.024.572-.074c.191-.034.378-.077.561-.127a2.887,2.887,0,0,0,.656,1.229L9.913,21.5,8.65,19.98A2.889,2.889,0,0,0,8.906,18.46Zm-1.373,9.6a1.377,1.377,0,0,0-2.712.478L6.077,35.66l-1.45.256L2.8,25.539A2.845,2.845,0,0,1,4.6,22.38l1.877-.7L9.29,25.067a1.377,1.377,0,0,0,2.344-.381l1.64-4.232,2.149.018A2.846,2.846,0,0,1,18.2,22.823L20.031,33.2l-1.45.256-1.256-7.125a1.377,1.377,0,1,0-2.712.478l1.256,7.125-3.539.624h0l-3.539.624Zm5.391,30.992L9.275,37.892l2.176-.384,3.618,20.516Q13.982,58.512,12.924,59.049ZM29,9A6.248,6.248,0,1,1,41.5,9v8.02c-.146-.04-.3-.074-.447-.1l-2.488-.46a.105.105,0,0,1-.086-.1v-.671a5,5,0,0,0,1.778-3.821V9.639a1.377,1.377,0,0,0-1.377-1.377H31.621a1.377,1.377,0,0,0-1.377,1.377v2.224a5,5,0,0,0,1.79,3.832v.66a.106.106,0,0,1-.086.1l-2.488.46c-.156.029-.309.064-.459.106Zm6.247,5.112A2.253,2.253,0,0,1,33,11.863v-.847h4.5v.847h0A2.253,2.253,0,0,1,35.249,14.114Zm1.04,3.946-1.039,1.415-1.034-1.406a2.85,2.85,0,0,0,.531-1.226q.248.025.5.025a5.014,5.014,0,0,0,.515-.026A2.852,2.852,0,0,0,36.289,18.06ZM33.872,53.714H32.22V45.576h1.652Zm4.424,0H36.643V45.576H38.3Zm1.377-10.892H29.815l1.893-10.74H38.9l1.8,10.74Zm.392-18.642a1.377,1.377,0,0,0-1.377,1.377v3.772H31.948V25.557a1.377,1.377,0,0,0-2.754,0v4.922l-.382,2.168a1.373,1.373,0,0,0-.529-.106h-.56V22.316a2.735,2.735,0,0,1,2.238-2.689l1.745-.323,2.434,3.311a1.377,1.377,0,0,0,2.219,0L38.793,19.3l1.756.325a2.735,2.735,0,0,1,2.238,2.689V32.542h-.56a1.373,1.373,0,0,0-.447.075l-.339-2.026V25.557A1.377,1.377,0,0,0,40.064,24.18ZM63.1,6.595a3.58,3.58,0,0,1,2.931,3.966L65,10.38A4.06,4.06,0,0,1,62.186,8.4a1.376,1.376,0,0,0-1.674-.6l-1.052.392A3.586,3.586,0,0,1,63.1,6.595Zm-4.5,4.932.014-.077,1.871-.7a6.805,6.805,0,0,0,4.047,2.339l.994.175a3.58,3.58,0,0,1-6.926-1.74Zm3.236,8.414-1.392,1.565-.672-1.977a2.887,2.887,0,0,0,.692-1.269c.184.05.37.093.561.127s.381.058.571.074A2.889,2.889,0,0,0,61.83,19.941ZM50.467,33.2,52.3,22.823a2.845,2.845,0,0,1,2.779-2.351l2.1-.017,1.419,4.176a1.377,1.377,0,0,0,2.333.472l3.057-3.438,1.912.714A2.845,2.845,0,0,1,67.7,25.539l-1.83,10.377-1.45-.256,1.256-7.125a1.377,1.377,0,1,0-2.712-.478l-1.256,7.125-3.539-.624h0l-3.539-.624,1.256-7.125a1.377,1.377,0,1,0-2.712-.478l-1.256,7.125Zm.252,23,3.447-19.548,2.17.383L52.823,56.944Q51.778,56.545,50.718,56.2Zm4.711,1.83,3.618-20.516,2.176.384L57.574,59.049Q56.516,58.512,55.429,58.025Z" transform="translate(0.001 0)"/></g></g><g transform="translate(33.845 59.222)"><path class="b" d="M247.215,430.1h0a1.377,1.377,0,1,0-.007,2.754h.008a1.377,1.377,0,1,0,0-2.754Z" transform="translate(-245.808 -430.099)"/></g><g transform="translate(40.254 59.696)"><path class="b" d="M307.134,437.774a43.294,43.294,0,0,0-13.2-4.214,1.377,1.377,0,1,0-.409,2.723,40.542,40.542,0,0,1,12.361,3.946,1.377,1.377,0,0,0,1.247-2.455Z" transform="translate(-292.353 -433.545)"/></g></g></svg>