<svg xmlns="http://www.w3.org/2000/svg" width="67.017" height="67.018" viewBox="0 0 67.017 67.018"><defs><style>.a{fill:#fff;}</style></defs><g transform="translate(0 0)"><g transform="translate(17.119 42.447)"><path class="a" d="M133.393,325.418l-.009-.053a1.309,1.309,0,1,0-2.578.457l.009.053a1.309,1.309,0,0,0,1.287,1.081,1.329,1.329,0,0,0,.23-.02A1.309,1.309,0,0,0,133.393,325.418Z" transform="translate(-130.786 -324.285)"/></g><g transform="translate(0 0)"><g transform="translate(0 0)"><path class="a" d="M57.159,57.457l3.618-20.982,2.675.472a1.3,1.3,0,0,0,.227.02,1.309,1.309,0,0,0,1.289-1.082l1.967-11.154a5.322,5.322,0,0,0-3.38-5.91l-2.314-.864a.137.137,0,0,1-.04-.024h0a.138.138,0,0,1-.046-.129l.116-.656a6.066,6.066,0,0,0,1.278-.7A6.17,6.17,0,0,0,65,12.482l.2-1.158h0l.1-.554A6.156,6.156,0,0,0,64.29,6.118,6.021,6.021,0,0,0,53.463,8.575l-.116.657h0L53.123,10.5a6.022,6.022,0,0,0,1.932,5.545l-.1.6a.248.248,0,0,1-.245.206l-2.375-.008a5.323,5.323,0,0,0-5.2,4.4L45.169,32.395a1.309,1.309,0,0,0,1.062,1.516l2.681.473L45.689,52.663a46.509,46.509,0,0,0-6.667-1.279V43.325H40.21a1.335,1.335,0,0,0,.624-.145,1.312,1.312,0,0,0,.69-1.38l-1.381-8.248h1.839a1.309,1.309,0,0,0,1.309-1.309V21.214a5.207,5.207,0,0,0-1.232-3.367c0-.04.006-.08.006-.121V8.687a8.557,8.557,0,1,0-17.114-.13v9.169a1.337,1.337,0,0,0,.007.134,5.207,5.207,0,0,0-1.221,3.354V32.244a1.309,1.309,0,0,0,1.309,1.309h1.841c.02,0,.04,0,.06,0l-1.452,8.24a1.311,1.311,0,0,0,.581,1.329,1.362,1.362,0,0,0,.744.207H28.01v8.056a46.514,46.514,0,0,0-6.684,1.281l-.668-3.79a1.309,1.309,0,0,0-2.578.455l.722,4.093q-1.007.333-2,.711L13.463,35.2l2.062-.364.678,3.844a1.309,1.309,0,0,0,1.287,1.082,1.325,1.325,0,0,0,.222-.019,1.355,1.355,0,0,0,1.06-1.567L18.1,34.384l2.681-.473A1.309,1.309,0,0,0,21.847,32.4L19.88,21.242a5.323,5.323,0,0,0-5.2-4.4l-2.391-.02a.234.234,0,0,1-.228-.193l-.1-.582A6.022,6.022,0,0,0,13.893,10.5l-.224-1.271h0l-.1-.552A6.159,6.159,0,0,0,11.087,4.7a6.021,6.021,0,0,0-8.4,1.481,6.159,6.159,0,0,0-.973,4.594l.1.552h0l.224,1.271a6.022,6.022,0,0,0,3.711,4.549l.117.662a.146.146,0,0,1-.088.153l-2.314.864a5.323,5.323,0,0,0-3.38,5.91L2.047,35.886a1.309,1.309,0,0,0,1.516,1.062l2.675-.472L9.857,57.458A46.807,46.807,0,0,0,.383,64.783a1.309,1.309,0,0,0,1.851,1.851,44.228,44.228,0,0,1,62.548,0,1.309,1.309,0,1,0,1.851-1.851A46.8,46.8,0,0,0,57.159,57.457ZM4.836,7.669A3.408,3.408,0,0,1,7.625,6.217a3.415,3.415,0,0,1,2.867,1.572l-1-.373A1.309,1.309,0,0,0,7.9,7.989,3.859,3.859,0,0,1,5.222,9.867l-.976.172A3.378,3.378,0,0,1,4.836,7.669Zm-.1,4.943.945-.167a6.469,6.469,0,0,0,3.847-2.223l1.779.663.013.073a3.4,3.4,0,0,1-6.584,1.654Zm3.735,4.937q.271-.023.543-.07c.181-.032.359-.073.533-.12a2.745,2.745,0,0,0,.624,1.168l-.742,1.916-1.2-1.448A2.746,2.746,0,0,0,8.466,17.549ZM7.16,26.672a1.309,1.309,0,0,0-2.578.454L5.776,33.9,4.4,34.142,2.659,24.278a2.7,2.7,0,0,1,1.717-3l1.785-.666,2.67,3.221a1.309,1.309,0,0,0,2.228-.362l1.559-4.023,2.043.017A2.705,2.705,0,0,1,17.3,21.7l1.739,9.864-1.378.243-1.194-6.773a1.309,1.309,0,0,0-2.578.454l1.194,6.773-3.364.593h0l-3.364.593Zm5.125,29.461L8.817,36.021l2.068-.365,3.439,19.5Q13.292,55.623,12.286,56.133ZM27.569,8.557a5.939,5.939,0,1,1,11.878,0v7.624c-.139-.038-.281-.071-.425-.1l-2.365-.437a.1.1,0,0,1-.082-.1V14.91a4.748,4.748,0,0,0,1.69-3.632V9.163a1.309,1.309,0,0,0-1.309-1.309h-6.9a1.309,1.309,0,0,0-1.309,1.309v2.114a4.748,4.748,0,0,0,1.7,3.643v.628a.1.1,0,0,1-.082.1l-2.365.437c-.148.027-.294.061-.437.1Zm5.939,4.86a2.142,2.142,0,0,1-2.14-2.14v-.806h4.279v.806h0A2.142,2.142,0,0,1,33.508,13.417Zm.988,3.751-.988,1.345-.983-1.337a2.709,2.709,0,0,0,.5-1.165q.236.024.478.024a4.767,4.767,0,0,0,.49-.025A2.711,2.711,0,0,0,34.5,17.168ZM32.2,51.062H30.628V43.326H32.2Zm4.205,0H34.834V43.326H36.4Zm1.309-10.354h-9.37l1.8-10.21h6.835l1.709,10.21Zm.372-17.722A1.309,1.309,0,0,0,36.777,24.3V27.88H30.371V24.3a1.309,1.309,0,1,0-2.618,0v4.679l-.363,2.061a1.305,1.305,0,0,0-.5-.1h-.532V21.214a2.6,2.6,0,0,1,2.127-2.556l1.659-.307L32.454,21.5a1.309,1.309,0,0,0,2.109,0l2.314-3.149,1.669.309a2.6,2.6,0,0,1,2.127,2.556v9.721h-.532a1.306,1.306,0,0,0-.424.072l-.322-1.926V24.3A1.309,1.309,0,0,0,38.086,22.986Zm21.9-16.717a3.4,3.4,0,0,1,2.787,3.77l-.976-.172a3.859,3.859,0,0,1-2.68-1.878,1.308,1.308,0,0,0-1.591-.573l-1,.373A3.409,3.409,0,0,1,59.984,6.269ZM55.7,10.958l.013-.073,1.779-.663a6.469,6.469,0,0,0,3.847,2.223l.945.167A3.4,3.4,0,0,1,55.7,10.958Zm3.076,8-1.323,1.488-.638-1.879a2.744,2.744,0,0,0,.658-1.206c.174.047.352.088.533.12s.362.055.543.071A2.746,2.746,0,0,0,58.777,18.956Zm-10.8,12.6L49.714,21.7a2.7,2.7,0,0,1,2.641-2.235l1.995-.016,1.349,3.97a1.309,1.309,0,0,0,2.217.449L60.822,20.6l1.818.679a2.7,2.7,0,0,1,1.717,3l-1.739,9.864L61.24,33.9l1.194-6.773a1.309,1.309,0,1,0-2.578-.454l-1.194,6.773L55.3,32.852h0l-3.364-.593,1.194-6.773a1.309,1.309,0,0,0-2.578-.454L49.353,31.8Zm.239,21.86L51.49,34.838l2.062.364-3.338,18.93Q49.221,53.752,48.214,53.421Zm4.478,1.739,3.439-19.5,2.068.365L54.731,56.133Q53.725,55.623,52.692,55.16Z" transform="translate(0.001 0)"/></g></g><g transform="translate(32.175 56.297)"><path class="a" d="M247.146,430.1h0a1.309,1.309,0,1,0-.007,2.618h.008a1.309,1.309,0,1,0,0-2.618Z" transform="translate(-245.808 -430.099)"/></g><g transform="translate(38.267 56.748)"><path class="a" d="M306.4,437.565a41.155,41.155,0,0,0-12.548-4.006,1.309,1.309,0,1,0-.389,2.589,38.539,38.539,0,0,1,11.751,3.751,1.309,1.309,0,0,0,1.185-2.334Z" transform="translate(-292.353 -433.545)"/></g></g></svg>