<svg xmlns="http://www.w3.org/2000/svg" width="67.638" height="65.243" viewBox="0 0 67.638 65.243"><defs><style>.a{fill:#fff;}</style></defs><g transform="translate(0 -6.948)"><g transform="translate(9.062 61.224)"><path class="a" d="M56.407,323.976q-.032-.029-.067-.055c-.69-.572-1.379-1.186-2.013-1.82a1.031,1.031,0,1,0-1.455,1.462,26.392,26.392,0,0,0,2.151,1.951,1.034,1.034,0,0,0,1.384-1.538Z" transform="translate(-52.569 -321.801)"/></g><g transform="translate(0.212 32.676)"><path class="a" d="M3.095,156.255a1.034,1.034,0,0,0-1.371.883c-.207.945-.365,1.9-.483,2.862a1.034,1.034,0,0,0,.876,1.158h.131a1.034,1.034,0,0,0,1.027-.91c.11-.9.262-1.8.455-2.675A1.034,1.034,0,0,0,3.095,156.255Z" transform="translate(-1.232 -156.197)"/></g><g transform="translate(4.335 55.149)"><path class="a" d="M28.573,289.329c-.531-.731-1.034-1.489-1.5-2.262a1.034,1.034,0,0,0-1.418-.36l0,0a1.034,1.034,0,0,0-.36,1.418l0,0c.5.827,1.034,1.641,1.607,2.42a1.034,1.034,0,0,0,1.669-1.221Z" transform="translate(-25.15 -286.562)"/></g><g transform="translate(1.22 48.082)"><path class="a" d="M10.008,248.878c-.331-.834-.634-1.7-.89-2.565a1.034,1.034,0,0,0-1.282-.705l-.029.009a1.034,1.034,0,0,0-.69,1.283c.276.924.593,1.848.952,2.758a1.044,1.044,0,1,0,1.938-.779Z" transform="translate(-7.076 -245.566)"/></g><g transform="translate(2.122 25.532)"><path class="a" d="M14.956,114.864a1.035,1.035,0,0,0-1.389.459c-.434.862-.834,1.751-1.186,2.655a1.033,1.033,0,0,0,1.922.757l0-.005a24.872,24.872,0,0,1,1.11-2.475A1.035,1.035,0,0,0,14.956,114.864Z" transform="translate(-12.309 -114.753)"/></g><g transform="translate(0 40.495)"><g transform="translate(0)"><path class="a" d="M2.29,205.256v0c-.11-.9-.186-1.807-.221-2.7A1.035,1.035,0,1,0,0,202.626a22.668,22.668,0,0,0,.234,2.9,1.034,1.034,0,0,0,1,.89h.159A1.034,1.034,0,0,0,2.29,205.256Z" transform="translate(0 -201.553)"/></g></g><g transform="translate(24.778 8.754)"><g transform="translate(0 0)"><path class="a" d="M148.69,18.367a1.039,1.039,0,0,0-1.134-.934c-.958.1-1.924.234-2.875.421a1.039,1.039,0,0,0,.193,2.069l-.007-.028h.2c.89-.172,1.793-.3,2.689-.393A1.039,1.039,0,0,0,148.69,18.367Z" transform="translate(-143.738 -17.428)"/></g></g><g transform="translate(5.789 19.124)"><g transform="translate(0 0)"><path class="a" d="M37.055,77.842a1.041,1.041,0,0,0-1.469.09c-.634.724-1.241,1.489-1.807,2.275a1.034,1.034,0,0,0,.834,1.641v.014a1.034,1.034,0,0,0,.841-.428c.531-.731,1.1-1.448,1.689-2.124A1.041,1.041,0,0,0,37.055,77.842Z" transform="translate(-33.582 -77.58)"/></g></g><g transform="translate(32.559 8.626)"><g transform="translate(0 0)"><path class="a" d="M192.86,16.99c-.952-.145-1.924-.248-2.889-.3a1.036,1.036,0,0,0-.124,2.069c.91.069,1.814.165,2.7.3h.159a1.037,1.037,0,0,0,.152-2.069Z" transform="translate(-188.873 -16.685)"/></g></g><g transform="translate(11.053 14.035)"><path class="a" d="M68.2,48.485a1.034,1.034,0,0,0-1.392-.257c-.793.545-1.572,1.138-2.317,1.751a1.036,1.036,0,1,0,1.324,1.593c.69-.579,1.42-1.131,2.165-1.641A1.034,1.034,0,0,0,68.2,48.485Z" transform="translate(-64.116 -48.064)"/></g><g transform="translate(17.565 10.437)"><g transform="translate(0 0)"><path class="a" d="M107.825,45.653h0Z" transform="translate(-106.785 -42.469)"/><path class="a" d="M106.579,27.95a1.034,1.034,0,0,0-1.413-.673,25.842,25.842,0,0,0-2.675,1.124,1.029,1.029,0,1,0,.862,1.869c.814-.386,1.655-.738,2.5-1.048A1.034,1.034,0,0,0,106.579,27.95Z" transform="translate(-101.892 -27.189)"/></g></g><g transform="translate(29.878 70.058)"><path class="a" d="M178.2,374.015a1.036,1.036,0,0,0-1.1-.969,25.519,25.519,0,0,1-2.717.062,1.035,1.035,0,1,0-.055,2.069h.876c.69,0,1.379,0,2.027-.062A1.036,1.036,0,0,0,178.2,374.015Z" transform="translate(-173.322 -373.044)"/></g><g transform="translate(59.723 47.035)"><path class="a" d="M348.553,239.522a1.035,1.035,0,0,0-1.258.748c-.221.876-.49,1.745-.793,2.593a1.033,1.033,0,0,0,1.95.679v0c.324-.91.607-1.841.848-2.758A1.035,1.035,0,0,0,348.553,239.522Z" transform="translate(-346.447 -239.489)"/></g><g transform="translate(60.525 31.648)"><path class="a" d="M353.724,153.806c-.159-.952-.359-1.91-.6-2.841a1.034,1.034,0,0,0-2,.524c.228.869.414,1.765.565,2.655a1.034,1.034,0,0,0,1.007.848h.172A1.034,1.034,0,0,0,353.724,153.806Z" transform="translate(-351.099 -150.23)"/></g><g transform="translate(7.374 6.948)"><g transform="translate(0 0)"><path class="a" d="M102.947,23.352a1,1,0,0,0-.2-.285l-1.827-1.9a1,1,0,0,0-1-.248l-3.3,1-3.861-4.1,8.668-4.827a1.007,1.007,0,0,0,.3-1.62L99.3,8.939a1.007,1.007,0,0,0-1-.234L87.311,12.028,83.615,8.1a3.344,3.344,0,0,0-3.806-.9h-.062a4.068,4.068,0,0,0-2.213,2.213,3.727,3.727,0,0,0-.221.814l-.421-.145a1.036,1.036,0,1,0-.634,1.972c.531.172,1.062.365,1.593.565a3.97,3.97,0,0,0,.559.69l3.9,3.7L81.188,20.7a24.3,24.3,0,1,0,5.137,4.951l1.765-3.186,4.1,3.861L91.2,29.584a1,1,0,0,0,.241,1.021s2.02,2,2.069,2.069a1,1,0,0,0,1.366-.364l.013-.023,2.7-4.944,4.868-2.655A1.007,1.007,0,0,0,102.947,23.352ZM51.462,24.715a22.142,22.142,0,0,1,15.673-6.482q.69,0,1.379.041c3.91,3.606,2.758,6.9.138,9.86a48.4,48.4,0,0,1-4.965,4.579c-2.544,2.165-4.916,4.186-5.813,6.206-1.062,2.4-.283,4.572,4.006,6.468a11.273,11.273,0,0,1,3.765,2.248.111.111,0,0,0,.02.019l-.048.016a8.57,8.57,0,0,1-3.255.559c-5.2.221-8.9-3.1-11.777-5.675-2.069-1.841-3.786-3.372-5.572-3.386A22.142,22.142,0,0,1,51.462,24.715ZM89.38,40.423h.007A22.231,22.231,0,0,1,74.072,61.544a7.234,7.234,0,0,1,.848-4.7A17.1,17.1,0,0,1,79.057,52.3c6.365-5.309,6.723-8.275,7-10.557.172-1.441.3-2.517,3.151-4.082A22.463,22.463,0,0,1,89.38,40.423ZM88.1,32.962a22,22,0,0,1,.759,2.655c-4.337,2.207-4.53,3.779-4.792,5.923-.234,1.931-.538,4.454-6.289,9.254a18.86,18.86,0,0,0-4.62,5.123,9.144,9.144,0,0,0-1.034,6.158A22.217,22.217,0,0,1,44.966,41.2c1.1,0,2.517,1.3,4.261,2.855,3.158,2.82,7.2,6.42,13.219,6.206a10.342,10.342,0,0,0,4.137-.786,2.069,2.069,0,0,0,1.145-1.3,1.972,1.972,0,0,0-.5-1.8,12.879,12.879,0,0,0-4.51-2.82c-2.917-1.289-3.551-2.544-2.979-3.827.69-1.614,2.91-3.448,5.268-5.516A50.193,50.193,0,0,0,70.19,29.39c2.882-3.282,4.365-6.861,1.434-10.778a22.065,22.065,0,0,1,8.964,4.075L79,27.922a1.007,1.007,0,0,0,.241,1.021s2.572,2.551,2.655,2.6a1,1,0,0,0,1.367-.364l.013-.023,2.007-3.627A22.17,22.17,0,0,1,88.1,32.962Zm9.247-7.7-.89.441a.993.993,0,0,0-.455.462l-.441.9-1.717,3.1-.5-.552,1-3.3a1,1,0,0,0-.324-1.062l-5.441-5.123a1,1,0,0,0-1.414.013l-.027.029c-.069.076-4.965,8.9-4.965,8.9L81.1,27.991l3.337-11a1,1,0,0,0-.324-1.069l-4.33-4.075a1.434,1.434,0,0,1-.393-1.655,2.165,2.165,0,0,1,1.124-1.117h.034a1.434,1.434,0,0,1,1.614.414L86.3,13.862a1,1,0,0,0,1.021.276l11.033-3.331,1.069,1.069-8.757,4.813a1,1,0,0,0-.4,1.357l.013.023c.041.076,5.316,5.689,5.316,5.689a1,1,0,0,0,1.021.269l3.317-1,.517.517Z" transform="translate(-42.775 -6.948)"/></g></g><g transform="translate(56.244 54.193)"><path class="a" d="M329.3,281.156l-.046-.025a1.034,1.034,0,0,0-1.379.407c-.434.793-.91,1.572-1.42,2.317a1.037,1.037,0,0,0,1.7,1.193c.538-.8,1.048-1.634,1.517-2.475A1.034,1.034,0,0,0,329.3,281.156Z" transform="translate(-326.269 -281.013)"/></g><g transform="translate(61.373 39.237)"><g transform="translate(0 0)"><path class="a" d="M357.2,194.256a1.035,1.035,0,0,0-1.048,1.02c0,.014,0,.028,0,.042v.117c0,.9-.041,1.813-.124,2.717a1.034,1.034,0,0,0,.936,1.124h.1a1.034,1.034,0,0,0,1.041-.958c.09-.958.131-1.931.131-2.9v-.138A1.034,1.034,0,0,0,357.2,194.256Z" transform="translate(-356.019 -194.255)"/></g></g><g transform="translate(22.205 68.939)"><path class="a" d="M132.837,367.22a21.367,21.367,0,0,1-2.648-.607,1.034,1.034,0,1,0-.565,1.986c.924.262,1.876.49,2.827.69h.193a1.039,1.039,0,0,0,.193-2.069Z" transform="translate(-128.811 -366.555)"/></g><g transform="translate(37.559 68.613)"><path class="a" d="M222.552,365.342a1.034,1.034,0,0,0-1.254-.637v.028a20.556,20.556,0,0,1-2.613.69,1.035,1.035,0,1,0,.455,2.02c.938-.214,1.882-.476,2.8-.772A1.034,1.034,0,0,0,222.552,365.342Z" transform="translate(-217.876 -364.665)"/></g><g transform="translate(15.169 65.918)"><path class="a" d="M91.963,350.461c-.821-.407-1.627-.848-2.407-1.289a1.035,1.035,0,1,0-1.048,1.786c.834.49,1.7.945,2.572,1.379a1.036,1.036,0,0,0,.883-1.876Z" transform="translate(-87.997 -349.029)"/></g><g transform="translate(51.157 60.426)"><path class="a" d="M300.485,317.441a1.034,1.034,0,0,0-1.444.048h.007a25.134,25.134,0,0,1-1.944,1.9,1.035,1.035,0,0,0,1.379,1.545c.69-.641,1.42-1.324,2.069-2.027A1.034,1.034,0,0,0,300.485,317.441Z" transform="translate(-296.758 -317.171)"/></g><g transform="translate(44.796 65.352)"><path class="a" d="M264.242,346.25a1.034,1.034,0,0,0-1.419-.357l-.049.031V345.9c-.758.483-1.551.938-2.351,1.379a1.035,1.035,0,0,0,.945,1.841c.855-.441,1.7-.931,2.517-1.448A1.034,1.034,0,0,0,264.242,346.25Z" transform="translate(-259.861 -345.746)"/></g></g></svg>